HIERARCHY
ROOT joint_Root
{
	OFFSET 0.0 0.0 0.0
	CHANNELS 6 Xposition Yposition Zposition Zrotation Xrotation Yrotation 
	JOINT Hips
	{
		OFFSET -17.1583 93.1646 452.98
		CHANNELS 6 Xposition Yposition Zposition Zrotation Xrotation Yrotation 
		JOINT Spine
		{
			OFFSET 15.7357 0.0 0.0
			CHANNELS 6 Xposition Yposition Zposition Zrotation Xrotation Yrotation 
			JOINT Chest
			{
				OFFSET 8.98455 -0.406207 0.0
				CHANNELS 6 Xposition Yposition Zposition Zrotation Xrotation Yrotation 
				JOINT Neck
				{
					OFFSET 16.3773 0.0 0.0
					CHANNELS 6 Xposition Yposition Zposition Zrotation Xrotation Yrotation 
					JOINT Head
					{
						OFFSET 6.45672 0.0 0.0
						CHANNELS 6 Xposition Yposition Zposition Zrotation Xrotation Yrotation 
						End Site
						{
							OFFSET 0.0 0.0 0.0
						}
					}
				}
				JOINT Shoulder_L
				{
					OFFSET 12.9942 -0.242716 4.98039
					CHANNELS 6 Xposition Yposition Zposition Zrotation Xrotation Yrotation 
					JOINT UpperArm_L
					{
						OFFSET 5.34809 0.0 0.0
						CHANNELS 6 Xposition Yposition Zposition Zrotation Xrotation Yrotation 
						JOINT LowerArm_L
						{
							OFFSET 24.3286 1.87007e-05 0.0
							CHANNELS 6 Xposition Yposition Zposition Zrotation Xrotation Yrotation 
							JOINT Hand_L
							{
								OFFSET 22.2916 0.0 0.0
								CHANNELS 6 Xposition Yposition Zposition Zrotation Xrotation Yrotation 
								End Site
								{
									OFFSET 0.0 0.0 0.0
								}
							}
						}
					}
				}
				JOINT Shoulder_R
				{
					OFFSET 12.9945 -0.242716 -4.98039
					CHANNELS 6 Xposition Yposition Zposition Zrotation Xrotation Yrotation 
					JOINT UpperArm_R
					{
						OFFSET -5.34813 0.0 0.0
						CHANNELS 6 Xposition Yposition Zposition Zrotation Xrotation Yrotation 
						JOINT LowerArm_R
						{
							OFFSET -24.3289 0.000322201 0.0
							CHANNELS 6 Xposition Yposition Zposition Zrotation Xrotation Yrotation 
							JOINT Hand_R
							{
								OFFSET -22.2915 -0.000108084 0.0
								CHANNELS 6 Xposition Yposition Zposition Zrotation Xrotation Yrotation 
								End Site
								{
									OFFSET 0.0 0.0 0.0
								}
							}
						}
					}
				}
			}
		}
		JOINT UpperLeg_L
		{
			OFFSET -2.19248 -6.46944 0.0
			CHANNELS 6 Xposition Yposition Zposition Zrotation Xrotation Yrotation 
			JOINT LowerLeg_L
			{
				OFFSET 39.0811 0.0 -1.23785e-05
				CHANNELS 6 Xposition Yposition Zposition Zrotation Xrotation Yrotation 
				JOINT Foot_L
				{
					OFFSET 40.9854 0.0 -1.26872e-05
					CHANNELS 6 Xposition Yposition Zposition Zrotation Xrotation Yrotation 
					JOINT Toes_L
					{
						OFFSET 11.7543 0.0 0.0
						CHANNELS 6 Xposition Yposition Zposition Zrotation Xrotation Yrotation 
						End Site
						{
							OFFSET 0.0 0.0 0.0
						}
					}
				}
			}
		}
		JOINT UpperLeg_R
		{
			OFFSET -2.19251 6.46944 0.0
			CHANNELS 6 Xposition Yposition Zposition Zrotation Xrotation Yrotation 
			JOINT LowerLeg_R
			{
				OFFSET -39.0811 -0.00228153 -0.0401928
				CHANNELS 6 Xposition Yposition Zposition Zrotation Xrotation Yrotation 
				JOINT Foot_R
				{
					OFFSET -40.9854 0.0 0.0
					CHANNELS 6 Xposition Yposition Zposition Zrotation Xrotation Yrotation 
					JOINT Toes_R
					{
						OFFSET -11.7543 0.0 0.0
						CHANNELS 6 Xposition Yposition Zposition Zrotation Xrotation Yrotation 
						End Site
						{
							OFFSET 0.0 0.0 0.0
						}
					}
				}
			}
		}
	}
}
MOTION
Frames:	6
Frame Time:	0.0333333
0.000000 0.000000 0.000000 0.000000 0.000000 -0.000000 -0.994272 92.893900 2.238870 87.820300 2.799490 1.668620 15.735700 0.000005 -0.000001 86.473900 87.689700 -92.542200 8.984550 -0.406207 -0.000000 -3.109740 0.290671 -12.130700 16.377300 -0.000001 -0.000001 3.545330 2.414820 -9.768450 6.456720 -0.000001 -0.000000 0.250319 6.368750 -29.111600 12.994200 -0.242716 4.980390 -93.594700 10.338000 -70.706700 5.348090 -0.000007 -0.000001 -55.240600 0.117735 2.881990 24.328600 0.000019 0.000005 13.215800 24.266400 -29.744000 22.291600 -0.000001 0.000005 1.699720 4.819820 10.941100 12.994500 -0.242716 -4.980390 95.032300 -9.312360 -61.446100 -5.348130 -0.000001 -0.000004 -28.871200 -61.620900 -63.341500 -24.328900 0.000322 -0.000009 0.677964 2.983890 -12.826100 -22.291500 -0.000108 -0.000004 50.438900 5.489770 -6.127210 -2.192480 -6.469440 -0.000000 -173.133000 -7.436670 0.318472 39.081100 -0.000007 -0.000012 0.018834 -0.063828 16.440100 40.985400 -0.000006 -0.000013 -0.147570 14.005400 -69.852200 11.754300 -0.000000 0.000003 -0.003128 0.209675 -8.068570 -2.192510 6.469440 -0.000001 176.609000 10.092200 -176.053000 -39.081100 -0.002282 -0.040193 -0.008863 0.060790 11.347800 -40.985400 0.000008 0.000006 -9.763460 7.291000 -67.136700 -11.754300 -0.000006 -0.000006 -0.010136 0.272321 -5.509450
0.000000 0.000000 0.000000 0.000000 0.000000 -0.000000 -0.956719 92.922100 2.233610 87.870400 2.919500 1.526040 15.735700 0.000005 -0.000001 85.990300 87.725300 -92.017300 8.984550 -0.406207 -0.000000 -3.185560 0.256832 -12.049100 16.377300 -0.000001 -0.000001 3.716370 2.380890 -9.728880 6.456720 -0.000001 -0.000000 0.290146 6.297720 -28.928800 12.994200 -0.242716 4.980390 -93.585300 10.297700 -70.684400 5.348090 -0.000007 -0.000001 -54.910100 0.039607 2.912700 24.328600 0.000019 0.000005 13.227100 24.337700 -29.697800 22.291600 -0.000001 0.000005 1.707700 4.814940 11.033900 12.994500 -0.242716 -4.980390 95.032700 -9.290520 -61.388100 -5.348130 -0.000001 -0.000004 -28.975500 -61.543200 -63.369100 -24.328900 0.000322 -0.000009 0.621050 2.784280 -12.599800 -22.291500 -0.000108 -0.000004 50.365000 5.484400 -5.917870 -2.192480 -6.469440 -0.000000 -173.207000 -7.476190 0.301688 39.081100 -0.000007 -0.000012 0.018149 -0.062638 16.158700 40.985400 -0.000006 -0.000013 -0.145828 14.132200 -69.764100 11.754300 -0.000000 0.000003 -0.002977 0.207974 -8.137780 -2.192510 6.469440 -0.000001 176.574000 10.129000 -176.155000 -39.081100 -0.002282 -0.040193 -0.008301 0.058382 11.273200 -40.985400 0.000008 0.000006 -9.681780 7.191310 -67.131900 -11.754300 -0.000006 -0.000006 -0.010291 0.273466 -5.462610
0.000000 0.000000 0.000000 0.000000 0.000000 -0.000000 -0.932315 92.915400 2.242680 87.899200 3.007770 1.457440 15.735700 0.000005 -0.000001 85.514200 87.745000 -91.496900 8.984550 -0.406207 -0.000000 -3.230140 0.220345 -11.961500 16.377300 -0.000001 -0.000001 3.927240 2.375760 -9.657110 6.456720 -0.000001 -0.000000 0.358604 6.346250 -28.822400 12.994200 -0.242716 4.980390 -93.585500 10.271400 -70.637700 5.348090 -0.000007 -0.000001 -54.629600 -0.064353 2.865180 24.328600 0.000019 0.000005 13.125600 24.428800 -29.415600 22.291600 -0.000001 0.000005 1.836130 4.811600 11.097500 12.994500 -0.242716 -4.980390 95.016700 -9.260110 -61.386900 -5.348130 -0.000001 -0.000004 -29.119100 -61.444300 -63.416000 -24.328900 0.000322 -0.000009 0.502558 2.290480 -12.403400 -22.291500 -0.000108 -0.000004 50.210600 5.485600 -5.964280 -2.192480 -6.469440 -0.000000 -173.258000 -7.516020 0.202410 39.081100 -0.000007 -0.000012 0.020154 -0.069222 16.233000 40.985400 -0.000006 -0.000013 -0.095052 14.240800 -69.892600 11.754300 -0.000000 0.000003 -0.003252 0.211049 -8.012640 -2.192510 6.469440 -0.000001 176.531000 10.175800 -176.197000 -39.081100 -0.002282 -0.040193 -0.008078 0.057329 11.260400 -40.985400 0.000008 0.000006 -9.810710 7.176270 -67.135700 -11.754300 -0.000006 -0.000006 -0.010362 0.273993 -5.441030
0.000000 0.000000 0.000000 0.000000 0.000000 -0.000000 -0.919487 92.923100 2.254710 87.971000 3.048880 1.435770 15.735700 0.000005 -0.000001 85.360400 87.742900 -91.307900 8.984550 -0.406207 -0.000000 -3.228230 0.204492 -11.891600 16.377300 -0.000001 -0.000001 4.143870 2.436340 -9.700100 6.456720 -0.000001 -0.000000 0.448027 6.493290 -28.720800 12.994200 -0.242716 4.980390 -93.550900 10.142900 -70.588800 5.348090 -0.000007 -0.000001 -54.610000 -0.184212 2.760220 24.328600 0.000019 0.000005 13.073800 24.673200 -29.087300 22.291600 -0.000001 0.000005 2.058270 4.799800 11.320800 12.994500 -0.242716 -4.980390 94.996300 -9.194360 -61.315300 -5.348130 -0.000001 -0.000004 -29.257900 -61.261900 -63.705300 -24.328900 0.000322 -0.000009 0.426529 2.040080 -11.840300 -22.291500 -0.000108 -0.000004 50.209600 5.483090 -5.866900 -2.192480 -6.469440 -0.000000 -173.326000 -7.526510 0.267432 39.081100 -0.000007 -0.000012 0.019478 -0.067640 16.065300 40.985400 -0.000006 -0.000013 -0.100674 14.312900 -69.802500 11.754300 -0.000000 0.000003 -0.003122 0.209609 -8.071260 -2.192510 6.469440 -0.000001 176.470000 10.108300 -176.175000 -39.081100 -0.002282 -0.040193 -0.007869 0.056569 11.204500 -40.985400 0.000008 0.000006 -9.749650 7.090200 -67.150800 -11.754300 -0.000006 -0.000006 -0.010348 0.273887 -5.445390
0.000000 0.000000 0.000000 0.000000 0.000000 -0.000000 -0.933748 92.917700 2.251590 87.960400 3.044900 1.359120 15.735700 0.000005 -0.000001 85.254900 87.756400 -91.126800 8.984550 -0.406207 -0.000000 -3.257100 0.192696 -11.740700 16.377300 -0.000001 -0.000001 4.350210 2.533180 -9.801970 6.456720 -0.000001 -0.000000 0.483894 6.662610 -28.691500 12.994200 -0.242716 4.980390 -93.511100 9.995890 -70.532500 5.348090 -0.000007 -0.000001 -54.776600 -0.335207 2.699840 24.328600 0.000019 0.000005 13.003700 24.829500 -28.808600 22.291600 -0.000001 0.000005 2.279260 4.792510 11.458200 12.994500 -0.242716 -4.980390 95.015300 -9.198850 -61.235000 -5.348130 -0.000001 -0.000004 -29.794900 -61.114800 -64.309000 -24.328900 0.000322 -0.000009 0.332056 1.679580 -11.219100 -22.291500 -0.000108 -0.000004 49.943900 5.480920 -5.783620 -2.192480 -6.469440 -0.000000 -173.342000 -7.450080 0.140051 39.081100 -0.000007 -0.000012 0.020541 -0.070960 16.144900 40.985400 -0.000006 -0.000013 -0.110096 14.197800 -69.822700 11.754300 -0.000000 0.000003 -0.003340 0.212019 -7.973160 -2.192510 6.469440 -0.000001 176.513000 10.130400 -176.241000 -39.081100 -0.002282 -0.040193 -0.007730 0.056020 11.174800 -40.985400 0.000008 0.000006 -9.691860 7.054690 -67.198800 -11.754300 -0.000006 -0.000006 -0.010706 0.276506 -5.338200
0.000000 0.000000 0.000000 0.000000 0.000000 -0.000000 -0.938231 92.928100 2.264580 87.993100 3.004140 1.365260 15.735700 0.000005 -0.000001 85.744000 87.742200 -91.562000 8.984550 -0.406207 -0.000000 -3.224960 0.221978 -11.632200 16.377300 -0.000001 -0.000001 4.474740 2.624020 -9.882400 6.456720 -0.000001 -0.000000 0.545629 6.754320 -28.711000 12.994200 -0.242716 4.980390 -93.499700 9.955940 -70.519700 5.348090 -0.000007 -0.000001 -54.847800 -0.329880 2.744340 24.328600 0.000019 0.000005 12.958800 24.775200 -28.771600 22.291600 -0.000001 0.000005 2.123580 4.791980 11.468200 12.994500 -0.242716 -4.980390 95.002800 -9.171120 -61.223300 -5.348130 -0.000001 -0.000004 -30.190400 -61.027900 -64.713500 -24.328900 0.000322 -0.000009 0.229281 1.219120 -10.698100 -22.291500 -0.000108 -0.000004 49.700100 5.479330 -5.723020 -2.192480 -6.469440 -0.000000 -173.353000 -7.560300 0.253720 39.081100 -0.000007 -0.000012 0.019880 -0.069472 15.969100 40.985400 -0.000006 -0.000013 -0.129046 14.260700 -69.728700 11.754300 -0.000000 0.000003 -0.002937 0.207518 -8.156350 -2.192510 6.469440 -0.000001 176.489000 10.042900 -176.226000 -39.081100 -0.002282 -0.040193 -0.007553 0.055244 11.151900 -40.985400 0.000008 0.000006 -9.699380 7.032450 -67.151900 -11.754300 -0.000006 -0.000006 -0.010354 0.273934 -5.443440
